<svg width="105" height="104" viewBox="0 0 105 104" fill="none" xmlns="http://www.w3.org/2000/svg">
<circle cx="52.5391" cy="52" r="51.5" stroke="white"/>
<circle r="17" transform="matrix(0.708983 0.705225 0.705225 -0.708983 52.539 52.0001)" stroke="white" stroke-width="6"/>
<circle r="11" transform="matrix(0.708983 0.705225 0.705225 -0.708983 52.5391 52)" stroke="#ACACAC" stroke-width="2"/>
<line x1="65.2332" y1="39.2383" x2="61.707" y2="42.7832" stroke="black" stroke-width="2"/>
<line x1="43.3712" y1="61.2168" x2="39.845" y2="64.7617" stroke="black" stroke-width="2"/>
<path fill-rule="evenodd" clip-rule="evenodd" d="M33.7352 75.0557L25.7732 87L24.5389 86.3827L32.5011 74.4378C32.9066 74.6514 33.318 74.8574 33.7352 75.0557ZM32.5362 28.6128L24.5404 16.6179L25.7748 16L33.7711 27.9961C33.3536 28.1931 32.9418 28.3991 32.5362 28.6128ZM79.4866 50.8869L95.5389 50.8869L95.5389 52.1214L79.4882 52.1214C79.4929 51.9257 79.4954 51.73 79.4954 51.5342C79.4954 51.318 79.4925 51.1018 79.4866 50.8869Z" fill="white"/>
</svg>
