<svg width="100%" height="100%" viewBox="0 0 105 105" version="1.1" xmlns="http://www.w3.org/2000/svg" xmlns:xlink="http://www.w3.org/1999/xlink" xml:space="preserve" xmlns:serif="http://www.serif.com/" style="fill-rule:evenodd;clip-rule:evenodd;">
    <g transform="matrix(-3.82857e-16,-1,1,-3.82857e-16,-0.4207,104.893)">
        <circle cx="52.393" cy="52.921" r="51.5" style="fill:none;stroke:white;stroke-width:1px;"/>
    </g>
    <g transform="matrix(1,0,0,1,0.1,-0.4207)">
        <circle cx="52.393" cy="52.921" r="26" style="fill:none;stroke:rgb(86,86,86);stroke-width:8px;"/>
    </g>
    <g transform="matrix(0.999996,-0.00265772,-0.00265772,-0.999996,52.4932,52.5)">
        <circle cx="0" cy="0" r="17.194" style="fill:none;stroke:white;stroke-width:6px;"/>
    </g>
    <g transform="matrix(0.999996,-0.00265772,-0.00265772,-0.999996,52.4932,52.5)">
        <circle cx="0" cy="0" r="11.117" style="fill:none;stroke:rgb(172,172,172);stroke-width:2px;"/>
    </g>
    <g transform="matrix(1,0,0,1,0.1,-0.4207)">
        <path d="M52.335,34.746L52.349,39.795" style="fill:none;fill-rule:nonzero;stroke:black;stroke-width:2px;"/>
    </g>
    <g transform="matrix(1,0,0,1,0.1,-0.4207)">
        <path d="M52.418,66.047L52.432,71.095" style="fill:none;fill-rule:nonzero;stroke:black;stroke-width:2px;"/>
    </g>
    <g transform="matrix(1,0,0,1,0.1,-0.4207)">
        <path d="M75.673,70.383L87.733,78.422L87.11,79.668L75.049,71.629C75.265,71.219 75.473,70.804 75.673,70.383ZM28.779,71.593L16.668,79.667L16.044,78.42L28.156,70.346C28.355,70.768 28.563,71.184 28.779,71.593ZM51.269,24.187L51.269,7.979L52.516,7.979L52.516,24.185C52.318,24.181 52.121,24.178 51.923,24.178C51.705,24.178 51.486,24.181 51.269,24.187Z" style="fill:white;"/>
    </g>
</svg>
